PathFileType	4	(X/Y/Z)	1H_rest_fast_left.trc
DataRate	CameraRate	NumFrames	NumMarkers	Units	OrigDataRate	OrigDataStartFrame	OrigNumFrames
250.00	250.00	14	18	mm	250.00	13808	27614
Frame#	Time	c7	r_should	l_should	clavicle	r_upa	r_elb_l	r_elb_m	r_low	r_wri_l	r_wri_m	r_met	l_upa	l_elb_l	l_elb_m	l_low	l_wri_l	l_wri_m	l_met
	X1	Y1	Z1	X2	Y2	Z2	X3	Y3	Z3	X4	Y4	Z4	X5	Y5	Z5	X6	Y6	Z6	X7	Y7	Z7	X8	Y8	Z8	X9	Y9	Z9	X10	Y10	Z10	X11	Y11	Z11	X12	Y12	Z12	X13	Y13	Z13	X14	Y14	Z14	X15	Y15	Z15	X16	Y16	Z16	X17	Y17	Z17	X18	Y18	Z18
13808	55.22800	617.62610	1419.95032	243.53140	662.46332	1361.70264	403.52005	683.19427	1382.33044	89.04982	752.33679	1284.09119	245.08998	658.17810	1153.21924	473.68161	653.99847	1063.81799	493.95816	611.42609	1028.13538	420.99844	713.65973	889.80640	485.16702	743.57117	826.18909	458.88852	677.42822	802.38098	481.47296	782.04169	752.02063	490.38885	728.15771	1213.58618	0.65796	749.71112	1139.80530	-17.26776	695.08673	1075.27393	32.30582	814.10370	1158.77490	79.48280	823.91980	1204.55933	143.99301	828.04108	1136.77551	175.57628	891.43982	1228.00586	207.64664
13809	55.23200	617.62317	1419.95447	243.55408	662.46320	1361.71240	403.54578	683.18311	1382.32080	89.06619	752.32800	1284.09412	245.12184	658.14337	1153.20398	473.69489	653.97241	1063.81787	493.97833	611.39240	1028.13696	421.02719	713.63977	889.82397	485.23016	743.54968	826.19641	458.94550	677.38855	802.33588	481.47165	781.99512	752.00781	490.41656	728.12128	1213.52600	0.73545	749.66327	1139.73145	-17.16337	694.99945	1075.16406	32.37262	814.07330	1158.75391	79.55084	823.90234	1204.56030	144.04787	828.06201	1136.79175	175.64879	891.44141	1228.03784	207.68256
13810	55.23600	617.61292	1419.95447	243.58566	662.46094	1361.72021	403.57654	683.16791	1382.29492	89.09223	752.32397	1284.09692	245.14589	658.11658	1153.17920	473.71359	653.94910	1063.80981	493.99493	611.35583	1028.11963	421.06293	713.62469	889.83496	485.28433	743.52594	826.20410	459.00742	677.34979	802.28558	481.48798	781.95044	751.98572	490.45325	728.08466	1213.46399	0.81176	749.61102	1139.65247	-17.06937	694.90808	1075.04895	32.44975	814.04529	1158.73376	79.62360	823.88641	1204.55737	144.10036	828.07257	1136.78931	175.71507	891.44696	1228.07239	207.71594
13811	55.24000	617.59937	1419.94958	243.61288	662.46130	1361.72046	403.60526	683.15100	1382.26221	89.12201	752.32825	1284.09668	245.17043	658.10040	1153.16467	473.74969	653.93915	1063.80554	494.03012	611.32898	1028.09509	421.11191	713.61053	889.84454	485.33679	743.50708	826.21332	459.06424	677.31390	802.25598	481.53549	781.91486	751.96649	490.50189	728.04388	1213.39502	0.88207	749.55597	1139.56628	-16.96657	694.84009	1074.95374	32.56122	814.01801	1158.69861	79.70483	823.87225	1204.55054	144.15347	828.08636	1136.78052	175.78114	891.45074	1228.11450	207.73930
13812	55.24400	617.59052	1419.95020	243.63106	662.45966	1361.72522	403.62894	683.13147	1382.23218	89.14524	752.33209	1284.10132	245.19003	658.10730	1153.18176	473.80035	653.94794	1063.82007	494.08789	611.31744	1028.09656	421.18204	713.59930	889.85388	485.38409	743.48596	826.21710	459.11407	677.28723	802.26910	481.61752	781.88837	751.96954	490.56522	727.99969	1213.33240	0.94466	749.49799	1139.49011	-16.86513	694.81128	1074.91113	32.72504	813.99396	1158.66724	79.77694	823.85388	1204.54126	144.21172	828.08246	1136.77246	175.85857	891.45190	1228.16162	207.75851
13813	55.24800	617.58344	1419.95752	243.65404	662.45508	1361.73254	403.64789	683.11389	1382.21387	89.16106	752.32983	1284.10583	245.21268	658.13977	1153.22351	473.86325	653.96771	1063.85767	494.16583	611.33270	1028.12012	421.26779	713.58740	889.86572	485.43436	743.46387	826.21942	459.16431	677.27161	802.34125	481.74429	781.88196	751.99426	490.63937	727.95514	1213.27161	1.00320	749.44006	1139.42004	-16.76027	694.82458	1074.92212	32.92781	813.96191	1158.64258	79.84663	823.83704	1204.53320	144.26047	828.08673	1136.77551	175.93460	891.45148	1228.20154	207.78619
13814	55.25200	617.58136	1419.96594	243.67294	662.45563	1361.73596	403.67316	683.10095	1382.20386	89.18123	752.32245	1284.09607	245.23332	658.17902	1153.28210	473.93991	653.98682	1063.89648	494.24631	611.35077	1028.15161	421.36206	713.57239	889.86969	485.48938	743.43378	826.22156	459.22601	677.26007	802.43542	481.88925	781.87891	752.02081	490.72360	727.91193	1213.21765	1.06664	749.37939	1139.35596	-16.66248	694.85199	1074.96423	33.14008	813.92932	1158.61682	79.91699	823.82263	1204.52710	144.31786	828.10748	1136.78955	176.01117	891.44727	1228.24097	207.81267
13815	55.25600	617.58093	1419.97217	243.70395	662.45367	1361.74207	403.70203	683.09119	1382.19006	89.20793	752.31384	1284.08411	245.26680	658.20630	1153.32568	474.00183	653.99689	1063.92468	494.32248	611.36377	1028.17773	421.44760	713.54626	889.86218	485.56058	743.39600	826.21234	459.30365	677.24261	802.51160	482.02737	781.86621	752.04089	490.81161	727.86865	1213.16602	1.13580	749.33698	1139.29749	-16.56616	694.85590	1074.98218	33.32227	813.90369	1158.58740	79.99471	823.80988	1204.51990	144.38214	828.13342	1136.80530	176.09198	891.44012	1228.28223	207.84091
13816	55.26000	617.57996	1419.97729	243.73897	662.44940	1361.75708	403.73877	683.08484	1382.18079	89.23149	752.30194	1284.07068	245.30121	658.20911	1153.33899	474.04657	653.98749	1063.93811	494.37814	611.35986	1028.19971	421.51028	713.51660	889.85791	485.63110	743.35602	826.20325	459.38211	677.21295	802.53845	482.11148	781.83020	752.04089	490.88449	727.82642	1213.11182	1.20518	749.29437	1139.24634	-16.47435	694.83307	1074.95447	33.45094	813.88110	1158.55664	80.07259	823.79834	1204.52063	144.43329	828.16937	1136.83411	176.17154	891.42969	1228.32678	207.87733
13817	55.26400	617.57904	1419.98499	243.76138	662.45020	1361.76416	403.76581	683.07587	1382.17285	89.25299	752.29132	1284.06458	245.33359	658.17865	1153.32690	474.07263	653.96124	1063.93579	494.41327	611.33643	1028.20569	421.54532	713.48468	889.86078	485.69977	743.31952	826.19952	459.45468	677.17462	802.51459	482.14435	781.77728	752.02588	490.93744	727.78229	1213.06274	1.27220	749.25000	1139.19128	-16.38574	694.77826	1074.86816	33.52682	813.86377	1158.52258	80.14537	823.78497	1204.53003	144.48195	828.19775	1136.86743	176.23920	891.42212	1228.37439	207.90852
13818	55.26800	617.57812	1419.98120	243.79030	662.45508	1361.76758	403.79446	683.06250	1382.16162	89.27670	752.28284	1284.06641	245.36598	658.13586	1153.29541	474.08612	653.92279	1063.92480	494.44070	611.30481	1028.19543	421.56754	713.45551	889.86334	485.76529	743.28253	826.20038	459.53088	677.12976	802.45709	482.15753	781.71155	751.99689	490.98618	727.73352	1213.01379	1.33198	749.21124	1139.13367	-16.30191	694.70294	1074.74756	33.58112	813.84943	1158.49792	80.21207	823.76984	1204.54614	144.52817	828.21912	1136.89490	176.30812	891.41321	1228.42859	207.93912
13819	55.27200	617.57349	1419.96606	243.83545	662.45660	1361.76562	403.82953	683.04486	1382.14368	89.30892	752.27631	1284.06689	245.39806	658.10052	1153.27087	474.11255	653.89392	1063.91394	494.47827	611.26544	1028.18298	421.59741	713.42749	889.86847	485.83728	743.25055	826.20044	459.60468	677.07782	802.39490	482.19434	781.64410	751.96692	491.05548	727.68274	1212.96204	1.38948	749.16852	1139.07642	-16.21018	694.63025	1074.63928	33.65321	813.83038	1158.48889	80.28226	823.75250	1204.55933	144.58180	828.20874	1136.90796	176.37384	891.40283	1228.48816	207.97649
13820	55.27600	617.55859	1419.94580	243.88347	662.45355	1361.76050	403.86630	683.02417	1382.11804	89.34326	752.26746	1284.06543	245.43312	658.08868	1153.26550	474.16028	653.87775	1063.91394	494.53580	611.23474	1028.17114	421.65356	713.39948	889.87097	485.91238	743.21509	826.20380	459.68817	677.02698	802.36273	482.28384	781.58795	751.94604	491.14835	727.63153	1212.90210	1.45646	749.12616	1139.01819	-16.11253	694.57837	1074.56128	33.76448	813.80743	1158.48047	80.36147	823.72589	1204.57861	144.63797	828.18604	1136.91858	176.44749	891.38818	1228.55005	208.01286
13821	55.28000	617.54102	1419.92542	243.91777	662.44745	1361.75793	403.90201	683.00159	1382.09241	89.37603	752.25397	1284.05115	245.46573	658.10297	1153.28699	474.22644	653.87189	1063.92810	494.60953	611.22638	1028.17676	421.73709	713.37164	889.87018	485.99210	743.18005	826.20184	459.77481	676.98273	802.37927	482.42108	781.55048	751.94812	491.25995	727.58331	1212.84265	1.52906	749.08820	1138.95593	-16.01424	694.56519	1074.52966	33.93407	813.77600	1158.47131	80.43909	823.69647	1204.59778	144.69162	828.16187	1136.92847	176.52045	891.37158	1228.60767	208.05028
